<svg width="56" height="48" viewBox="0 0 56 48" fill="none" xmlns="http://www.w3.org/2000/svg">
  <path d="M24.5 44s-13.2-10.56-18.7-16.72C2.28 25.12 1 22.16 1 18.96 1 10.88 7.88 4 16 4c4.4 0 8.32 2.02 10.9 5.24C29.68 6.02 33.6 4 38 4c8.12 0 15 6.88 15 14.96 0 3.2-1.28 6.16-4.8 8.32C37.7 33.44 24.5 44 24.5 44z" stroke="#007AFF" stroke-width="3" fill="none"/>
  <g>
    <path d="M13.5 5.5v3.2c0 2.7 1.7 5.2 4.3 6.1 2.6-0.9 4.3-3.4 4.3-6.1V5.5l-4.3-1.7-4.3 1.7z" fill="#fff" stroke="#007AFF" stroke-width="1.5"/>
    <path d="M13.5 5.5v3.2c0 2.7 1.7 5.2 4.3 6.1 2.6-0.9 4.3-3.4 4.3-6.1V5.5l-4.3-1.7-4.3 1.7z" fill-opacity="0.2"/>
  </g>
</svg> 